<svg xmlns="http://www.w3.org/2000/svg" fill="none" viewBox="0 0 48 48">
  <path d="M32 0H16C7.162 0 0 7.163 0 16v16c0 8.837 7.163 16 16 16h16c8.837 0 16-7.163 16-16V16c0-8.837-7.163-16-16-16Z" fill="#1a202c"/>
  <path fill="#fff" d="M16.74 27.461a2.906 2.906 0 0 1 2.063.852c.543.543.843 1.273.843 2.055 0 .781-.285 1.479-.802 2.017l-.043.043a2.886 2.886 0 0 1-2.061.844c-.787 0-1.517-.3-2.06-.844a2.886 2.886 0 0 1-.844-2.06c0-.788.3-1.517.843-2.061a2.894 2.894 0 0 1 2.06-.846m.003-2.062h-.006a4.93 4.93 0 0 0-3.514 1.45 4.94 4.94 0 0 0-1.449 3.518c0 1.337.514 2.586 1.45 3.52a4.936 4.936 0 0 0 3.519 1.45 4.931 4.931 0 0 0 3.52-1.45l.04-.041.015-.015.015-.015a4.946 4.946 0 0 0 1.379-3.449 4.961 4.961 0 0 0-4.963-4.967h-.006V25.4ZM31.254 27.461a2.91 2.91 0 0 1 2.061.852 2.88 2.88 0 0 1 .848 2.053 2.9 2.9 0 0 1-.844 2.06 2.888 2.888 0 0 1-2.06.846c-.788 0-1.518-.3-2.061-.844a2.887 2.887 0 0 1-.844-2.06c0-.788.3-1.517.844-2.061a2.894 2.894 0 0 1 2.058-.846m.004-2.062h-.006a4.93 4.93 0 0 0-3.513 1.45 4.936 4.936 0 0 0-1.45 3.518c0 1.337.514 2.584 1.45 3.52a4.936 4.936 0 0 0 3.519 1.45 4.916 4.916 0 0 0 3.499-1.43h.002l.018-.02a4.943 4.943 0 0 0 1.45-3.52 4.92 4.92 0 0 0-1.451-3.511 4.966 4.966 0 0 0-3.51-1.455h-.006l-.002-.002ZM31.573 14.728l-.707 6.257A17.17 17.17 0 0 0 24 24.776a17.157 17.157 0 0 0-6.866-3.791l-.707-6.257L24 17.985l7.573-3.257ZM13.98 11.43l.4 3.53.706 6.258.156 1.383 1.342.372a15.139 15.139 0 0 1 6.038 3.335l1.38 1.241 1.38-1.24a15.126 15.126 0 0 1 6.037-3.337l1.343-.37.155-1.384.707-6.257.4-3.531-3.263 1.404-6.757 2.907-6.758-2.907-3.262-1.404h-.004Z"/>
</svg>
